# xmcd
#
# Track frame offsets: 
#        150
#        15217
#        31962
#        57885
#
# Disc length: 1105 seconds
#
# Revision: 3
# Processed by: cddbd v1.5.1PL2 Copyright (c) Steve Scherf et al.
# Submitted via: ExactAudioCopy v0.95a3
#
DISCID=21044f04
DTITLE=Hue and Cry - Long Term Lovers of Pain (single)
DYEAR=1991
DGENRE=Pop
TTITLE0=Long Term Lovers of Pain
TTITLE1=Heart of Saturday Night (live)
TTITLE2=Rememberance and Gold (live)
TTITLE3=Stars Crash Down (live)
EXTD=YEAR: 1991
EXTT0=
EXTT1=
EXTT2=
EXTT3=
PLAYORDER=
